# xmcd
#
# Track frame offsets:
#	150
#	53849
#	85738
#	125433
#	160208
#	195083
#
# Disc length: 2912 seconds
#
# Revision: 1
# Processed by: cddbd v1.5.2PL0 Copyright (c) Steve Scherf et al.
# Submitted via: audiograbber 1.83.01
#
DISCID=3f0b5e06
DTITLE=Grateful Dead - 95-04-02 The Pyramid, Memphis TN
DYEAR=1900
DGENRE=
TTITLE0=Shakedown Street
TTITLE1=The Same Thing
TTITLE2=Althea
TTITLE3=Memphis Blues
TTITLE4=Tennessee Jed
TTITLE5=Promised Land
EXTD=
EXTT0=
EXTT1=
EXTT2=
EXTT3=
EXTT4=
EXTT5=
PLAYORDER=
